Coordinates
version=1
nRows=21
nColumns=22
inDegrees=yes

Units are S.I. units (second, meters, Newtons, ...)
If the header above contains a line with 'inDegrees', this indicates whether rotational values are in degrees (yes) or radians (no).

endheader
time	pelvis_tilt	pelvis_list	pelvis_rotation	pelvis_tx	pelvis_ty	pelvis_tz	hip_flexion_r	hip_adduction_r	hip_rotation_r	knee_angle_r	ankle_angle_r	subtalar_angle_r	hip_flexion_l	hip_adduction_l	hip_rotation_l	knee_angle_l	ankle_angle_l	subtalar_angle_l	lumbar_extension	lumbar_bending	lumbar_rotation
      2.77000000	      0.76065787	     -0.03197323	    -57.99502460	     -0.43415907	      0.89270024	      0.24223962	    -12.28607509	      3.93689449	     18.05360712	    -27.06935843	      9.60559574	      1.00175116	     24.27139421	     -4.40190987	      0.76414160	    -20.96285399	     -0.85794669	      5.28040457	     -5.32843397	     -0.91763028	      8.67250976
      2.78000000	      0.85620958	     -0.02149462	    -58.50552005	     -0.42578864	      0.89329048	      0.25064758	    -12.08531602	      3.74048920	     18.15081300	    -28.61639474	      7.62194748	      1.78367542	     24.13049329	     -4.13286327	      1.11492647	    -22.33234144	     -0.86128082	      4.75519891	     -5.04593925	     -1.12974059	      8.35437136
      2.79000000	      0.96846236	     -0.04253105	    -59.11493769	     -0.41776654	      0.89406604	      0.25910560	    -11.67428554	      3.58595402	     18.19714424	    -30.51022062	      5.34740208	      2.45557986	     23.92915827	     -3.96247570	      1.12653813	    -23.70220012	     -0.63110914	      4.31444114	     -4.83659655	     -1.35894201	      8.11706793
      2.80000000	      1.12866193	     -0.07520909	    -59.81435518	     -0.41005826	      0.89500452	      0.26755147	    -11.04316837	      3.41808722	     18.12543585	    -32.74492508	      2.81535472	      3.04090949	     23.64489180	     -3.83222438	      0.83497812	    -25.02370329	     -0.18745382	      3.89672058	     -4.70006768	     -1.64162377	      7.94102028
      2.81000000	      1.35175237	     -0.11283305	    -60.58928032	     -0.40265424	      0.89610658	      0.27591041	    -10.19565740	      3.21085484	     17.92540992	    -35.29362023	      0.05901377	      3.47370168	     23.24029514	     -3.70324399	      0.30498868	    -26.20750323	      0.38089279	      3.50090461	     -4.63947464	     -1.98819272	      7.80064191
      2.82000000	      1.65028282	     -0.14197682	    -61.40906669	     -0.39550705	      0.89733710	      0.28411998	     -9.13115670	      2.92766050	     17.55081546	    -38.12472152	     -2.85777587	      3.71160498	     22.70793997	     -3.53305242	     -0.41219212	    -27.20798695	      1.02882730	      3.14472070	     -4.64618014	     -2.41636243	      7.65531679
      2.83000000	      2.00379731	     -0.14081629	    -62.25081836	     -0.38860772	      0.89862480	      0.29208092	     -7.82248521	      2.56642239	     17.01406244	    -41.20848838	     -5.84253864	      3.73719623	     22.07472722	     -3.30199159	     -1.22832467	    -27.98454929	      1.70949640	      2.79084571	     -4.68907531	     -2.91063390	      7.50105488
      2.84000000	      2.42407180	     -0.11779869	    -63.10503445	     -0.38194092	      0.89997616	      0.29976718	     -6.31205908	      2.10813102	     16.35838964	    -44.47590255	     -8.81539978	      3.59501808	     21.32792751	     -3.00372027	     -2.18251878	    -28.51701165	      2.29083309	      2.55482809	     -4.78167662	     -3.47188903	      7.29323647
      2.85000000	      2.87185290	     -0.02874765	    -63.93653332	     -0.37546129	      0.90124428	      0.30712154	     -4.56303376	      1.56837092	     15.60956674	    -47.87143994	    -11.64021214	      3.26407878	     20.55170321	     -2.62074828	     -3.16005989	    -28.82996286	      2.89942205	      2.28838039	     -4.85283290	     -4.07936352	      6.99431937
      2.86000000	      3.33674565	      0.08656604	    -64.75444961	     -0.36914758	      0.90248240	      0.31415813	     -2.65159866	      0.97120524	     14.83556699	    -51.29903150	    -14.24455963	      2.90958180	     19.70731317	     -2.18037385	     -4.15695784	    -28.90241120	      3.44857189	      2.08374945	     -4.93587200	     -4.68990836	      6.62376497
      2.87000000	      3.79581152	      0.20724274	    -65.55311731	     -0.36299073	      0.90368988	      0.32091747	     -0.63562170	      0.35989271	     14.08644613	    -54.66278457	    -16.50499699	      2.65098433	     18.80457103	     -1.70769710	     -5.14355876	    -28.76998690	      3.93549817	      1.93548016	     -5.03133542	     -5.27231733	      6.20939132
      2.88000000	      4.20804222	      0.36223969	    -66.33336533	     -0.35697100	      0.90476727	      0.32743698	      1.48519085	     -0.20933656	     13.43196477	    -57.89398469	    -18.23864068	      2.41984501	     17.91449968	     -1.22101071	     -6.06834080	    -28.48495729	      4.48337570	      1.74851185	     -5.08230280	     -5.79009779	      5.68336037
      2.89000000	      4.58195925	      0.44097289	    -67.10473469	     -0.35113344	      0.90592363	      0.33382358	      3.54422035	     -0.67738903	     12.88924652	    -60.88300033	    -19.45490170	      2.45265991	     16.93054936	     -0.77544667	     -6.96884880	    -28.06843967	      4.91566598	      1.66834168	     -5.20302864	     -6.21233650	      5.12104815
      2.90000000	      4.86668898	      0.50316586	    -67.84721415	     -0.34545537	      0.90700533	      0.34006179	      5.60294959	     -1.00539963	     12.42714733	    -63.61465961	    -20.01398231	      2.57482446	     15.97473895	     -0.38268395	     -7.76494242	    -27.60249926	      5.39010757	      1.55741709	     -5.30738775	     -6.51384388	      4.52335800
      2.91000000	      5.06457461	      0.49522033	    -68.55904052	     -0.33996068	      0.90815328	      0.34626591	      7.55928670	     -1.15750563	     12.03195181	    -66.01314663	    -20.00199896	      2.75499895	     14.98233069	     -0.07442223	     -8.47950821	    -27.08299424	      5.84789977	      1.47649079	     -5.44392420	     -6.68434205	      3.87826190
      2.92000000	      5.16986404	      0.43747606	    -69.21481783	     -0.33465684	      0.90929897	      0.35237723	      9.43807706	     -1.13908545	     11.64503626	    -68.09104570	    -19.49240907	      2.93570845	     14.03638767	      0.14105019	     -9.11784927	    -26.62780209	      6.25516946	      1.37268442	     -5.60745082	     -6.73424352	      3.19426773
      2.93000000	      5.19717696	      0.31534127	    -69.81973482	     -0.32951191	      0.91053739	      0.35851401	     11.18569750	     -0.96445066	     11.25097812	    -69.80553404	    -18.62306581	      3.02782587	     13.06429687	      0.27563962	     -9.66698536	    -26.15864272	      6.65394092	      1.29513150	     -5.80068541	     -6.67565927	      2.49022785
      2.94000000	      5.15931508	      0.13732180	    -70.36532710	     -0.32451390	      0.91183573	      0.36464039	     12.80904830	     -0.65521515	     10.83500660	    -71.17267589	    -17.53757753	      3.02259703	     12.09341652	      0.34273901	    -10.12073321	    -25.72716767	      7.03611208	      1.23661481	     -6.03051427	     -6.52762509	      1.76425387
      2.95000000	      5.08338220	     -0.07152868	    -70.84134270	     -0.31965122	      0.91316379	      0.37077570	     14.32485745	     -0.27603984	     10.35934109	    -72.20249356	    -16.38431428	      2.96756674	     11.13783465	      0.36133717	    -10.55196934	    -25.33733138	      7.40716530	      1.20049478	     -6.28333333	     -6.34047550	      1.00648967
      2.96000000	      4.97735263	     -0.23106891	    -71.28052408	     -0.31487203	      0.91440642	      0.37693702	     15.82120708	      0.13200555	      9.86519900	    -72.93366968	    -15.14112501	      2.49455677	     10.24616330	      0.38494331	    -10.90230212	    -24.93506973	      7.67023166	      1.09791183	     -6.45373516	     -6.14237666	      0.30815172
      2.97000000	      4.85288202	     -0.46812931	    -71.64195611	     -0.31014708	      0.91572685	      0.38312878	     17.14216547	      0.57581435	      9.30776578	    -73.33304320	    -13.96475511	      2.15021727	      9.29564737	      0.36883440	    -11.19406201	    -24.55097434	      7.97662349	      1.08053579	     -6.70729530	     -5.89926735	     -0.41730825
